<svg width="138" height="62" viewBox="0 0 138 62" fill="none" xmlns="http://www.w3.org/2000/svg">
<rect x="9.63623" width="52.1095" height="52.4929" rx="15" transform="rotate(10.5779 9.63623 0)" fill="#fff" fill-opacity="0.4"/>
<rect x="7" y="6" width="48" height="48" rx="15" fill="#fff"/>
<circle cx="30" cy="31" r="15" fill="#B6947B"/>
<circle cx="30" cy="31" r="10" fill="#fff"/>
<circle cx="30" cy="31" r="8" fill="#B6947B"/>
<circle cx="30" cy="31" r="6" fill="#fff"/>
<path d="M65.376 41V38.824L80.448 20.136L80.8 21.384H65.6V18.6H83.68V20.776L68.672 39.464L68.288 38.216H84.096V41H65.376ZM87.9433 41V24.04H91.0153V41H87.9433ZM89.4793 20.776C88.8819 20.776 88.3806 20.584 87.9753 20.2C87.5913 19.816 87.3993 19.3467 87.3993 18.792C87.3993 18.216 87.5913 17.736 87.9753 17.352C88.3806 16.968 88.8819 16.776 89.4793 16.776C90.0766 16.776 90.5673 16.968 90.9513 17.352C91.3566 17.7147 91.5593 18.1733 91.5593 18.728C91.5593 19.304 91.3673 19.7947 90.9833 20.2C90.5993 20.584 90.0979 20.776 89.4793 20.776ZM105.937 23.88C107.323 23.88 108.539 24.1467 109.585 24.68C110.651 25.2133 111.483 26.024 112.081 27.112C112.678 28.2 112.977 29.576 112.977 31.24V41H109.905V31.592C109.905 29.9493 109.499 28.712 108.689 27.88C107.899 27.048 106.779 26.632 105.329 26.632C104.241 26.632 103.291 26.8453 102.481 27.272C101.67 27.6987 101.041 28.328 100.593 29.16C100.166 29.992 99.9528 31.0267 99.9528 32.264V41H96.8808V24.04H99.8248V28.616L99.3448 27.4C99.8994 26.2907 100.753 25.4267 101.905 24.808C103.057 24.1893 104.401 23.88 105.937 23.88ZM126.086 47.4C124.529 47.4 123.014 47.176 121.542 46.728C120.091 46.3013 118.907 45.6827 117.99 44.872L119.462 42.504C120.251 43.1867 121.222 43.72 122.374 44.104C123.526 44.5093 124.731 44.712 125.99 44.712C127.995 44.712 129.467 44.2427 130.406 43.304C131.345 42.3653 131.814 40.936 131.814 39.016V35.432L132.134 32.072L131.974 28.68V24.04H134.886V38.696C134.886 41.6827 134.139 43.88 132.646 45.288C131.153 46.696 128.966 47.4 126.086 47.4ZM125.702 40.296C124.059 40.296 122.587 39.9547 121.286 39.272C120.006 38.568 118.982 37.5973 118.214 36.36C117.467 35.1227 117.094 33.6933 117.094 32.072C117.094 30.4293 117.467 29 118.214 27.784C118.982 26.5467 120.006 25.5867 121.286 24.904C122.587 24.2213 124.059 23.88 125.702 23.88C127.153 23.88 128.475 24.1787 129.67 24.776C130.865 25.352 131.814 26.248 132.518 27.464C133.243 28.68 133.606 30.216 133.606 32.072C133.606 33.9067 133.243 35.432 132.518 36.648C131.814 37.864 130.865 38.7813 129.67 39.4C128.475 39.9973 127.153 40.296 125.702 40.296ZM126.054 37.608C127.185 37.608 128.187 37.3733 129.062 36.904C129.937 36.4347 130.619 35.784 131.11 34.952C131.622 34.12 131.878 33.16 131.878 32.072C131.878 30.984 131.622 30.024 131.11 29.192C130.619 28.36 129.937 27.72 129.062 27.272C128.187 26.8027 127.185 26.568 126.054 26.568C124.923 26.568 123.91 26.8027 123.014 27.272C122.139 27.72 121.446 28.36 120.934 29.192C120.443 30.024 120.198 30.984 120.198 32.072C120.198 33.16 120.443 34.12 120.934 34.952C121.446 35.784 122.139 36.4347 123.014 36.904C123.91 37.3733 124.923 37.608 126.054 37.608Z" fill="#fff"/>
</svg>
