<?xml version="1.0" standalone="no"?>
<!DOCTYPE svg PUBLIC "-//W3C//DTD SVG 20010904//EN"
 "http://www.w3.org/TR/2001/REC-SVG-20010904/DTD/svg10.dtd">
<svg version="1.0" xmlns="http://www.w3.org/2000/svg"
 width="796.000000pt" height="258.000000pt" viewBox="0 0 796.000000 258.000000"
 preserveAspectRatio="xMidYMid meet">

<g transform="translate(0.000000,258.000000) scale(0.100000,-0.100000)"
fill="#000000" stroke="none">
<path d="M3763 1856 c-24 -21 -28 -32 -28 -76 0 -65 25 -90 92 -90 62 0 93 32
93 95 0 35 -6 52 -25 70 -33 34 -93 34 -132 1z"/>
<path d="M1023 1845 c-78 -39 -132 -122 -132 -205 -1 -44 40 -132 76 -166 63
-60 164 -80 257 -52 54 16 131 91 144 140 12 43 -12 152 -44 207 -55 93 -196
128 -301 76z m231 -63 c23 -16 50 -47 64 -73 l24 -47 -25 -48 c-51 -100 -133
-146 -219 -123 -93 24 -135 85 -126 181 12 124 171 186 282 110z"/>
<path d="M4083 1863 l-23 -4 0 -410 0 -409 89 0 88 0 2 415 1 415 -67 -1 c-38
-1 -78 -4 -90 -6z"/>
<path d="M539 1806 c-97 -26 -141 -85 -142 -191 -1 -75 20 -117 82 -160 36
-25 54 -30 114 -33 61 -3 79 0 116 20 55 30 104 88 104 125 0 50 -22 134 -44
164 -46 65 -146 97 -230 75z m169 -70 c33 -17 62 -61 62 -94 0 -11 -12 -41
-27 -67 -73 -132 -273 -96 -273 50 0 48 22 88 62 114 27 18 43 21 89 18 31 -3
70 -12 87 -21z"/>
<path d="M1643 1809 c-59 -11 -119 -54 -143 -103 -24 -50 -27 -134 -6 -174 20
-37 75 -89 111 -102 44 -17 135 -16 170 3 55 28 105 94 105 138 0 12 5 37 11
54 15 40 6 75 -27 115 -48 56 -135 83 -221 69z m135 -96 c35 -26 81 -93 82
-118 1 -65 -96 -133 -172 -121 -80 13 -138 66 -138 126 1 45 35 105 71 123 43
22 120 17 157 -10z"/>
<path d="M2465 1424 l0 -386 195 4 c227 5 282 19 344 88 39 43 51 87 44 161
-6 60 -31 97 -84 124 -21 11 -41 21 -43 22 -2 1 11 14 28 29 92 77 95 222 7
289 -55 42 -133 55 -321 55 l-171 0 1 -386z m331 231 c28 -18 37 -68 20 -110
-18 -43 -42 -55 -110 -55 l-56 0 0 96 0 97 63 -7 c34 -4 72 -13 83 -21z m14
-310 c57 -30 66 -87 21 -137 -28 -32 -32 -33 -108 -33 l-78 0 -3 93 -3 92 71
0 c44 0 82 -6 100 -15z"/>
<path d="M6673 1713 l-83 -26 0 -48 0 -49 -35 0 c-35 0 -35 0 -35 -45 0 -25
-1 -48 -2 -52 -2 -5 14 -9 35 -11 l37 -3 0 -162 c0 -134 3 -168 18 -197 36
-73 149 -101 238 -61 43 20 54 43 54 113 0 25 -3 29 -17 23 -43 -17 -90 -17
-106 0 -19 18 -20 42 -10 188 l6 97 64 0 c53 0 63 3 63 18 0 9 3 34 6 54 l6
37 -68 3 -69 3 0 69 c0 38 -4 70 -10 72 -5 1 -47 -9 -92 -23z"/>
<path d="M3273 1595 c-72 -20 -123 -42 -123 -53 0 -17 20 -115 24 -120 3 -2
30 8 61 23 110 54 185 42 185 -31 0 -37 0 -37 -110 -54 -145 -23 -190 -60
-190 -155 0 -89 44 -143 132 -165 52 -13 81 -3 142 51 l35 30 16 -31 c21 -42
69 -61 120 -50 50 11 62 25 70 82 7 46 6 47 -21 50 l-29 3 3 160 c4 154 3 161
-20 194 -13 19 -38 43 -56 54 -43 26 -169 32 -239 12z m147 -349 c0 -52 -27
-76 -85 -76 -28 0 -38 5 -47 25 -19 42 2 71 59 83 75 15 73 16 73 -32z"/>
<path d="M4495 1596 c-27 -8 -67 -22 -88 -31 -34 -14 -38 -19 -33 -43 3 -15 8
-44 12 -64 3 -21 9 -38 12 -38 3 0 29 12 59 26 108 53 183 40 183 -32 0 -37 0
-37 -110 -54 -145 -23 -190 -60 -190 -155 0 -89 44 -143 132 -165 40 -10 50
-9 84 8 22 11 50 32 63 46 14 14 27 26 30 26 4 0 12 -14 20 -31 18 -41 64 -61
116 -49 50 11 64 26 71 82 6 45 6 46 -22 50 l-29 3 4 160 c3 154 2 161 -21
194 -36 54 -79 74 -167 78 -45 2 -96 -3 -126 -11z m145 -350 c0 -52 -27 -76
-85 -76 -29 0 -37 5 -46 27 -7 18 -7 35 0 49 9 21 31 28 124 43 4 0 7 -19 7
-43z"/>
<path d="M6225 1599 c-51 -12 -113 -62 -131 -105 -20 -49 -17 -111 7 -150 16
-26 44 -45 115 -79 96 -46 115 -65 97 -94 -18 -29 -80 -25 -148 8 -34 17 -67
31 -72 31 -9 0 -36 -140 -29 -147 2 -2 36 -11 77 -19 210 -45 361 47 336 203
-9 52 -50 90 -145 134 -84 40 -103 59 -85 88 16 26 58 24 123 -5 36 -16 64
-23 69 -18 16 17 30 128 17 136 -39 25 -158 33 -231 17z"/>
<path d="M7105 1596 c-27 -8 -67 -22 -88 -31 -34 -14 -38 -19 -33 -43 3 -15 8
-44 12 -64 3 -21 9 -38 12 -38 3 0 29 12 59 26 108 53 183 40 183 -32 0 -37 0
-37 -110 -54 -145 -23 -190 -60 -190 -155 0 -89 44 -143 132 -165 40 -10 50
-9 84 8 22 11 50 32 63 46 31 33 34 33 48 -4 15 -41 65 -62 118 -50 50 11 62
25 70 82 7 46 6 47 -21 50 l-29 3 3 160 c4 154 3 161 -20 194 -12 19 -38 43
-56 54 -43 25 -169 32 -237 13z m145 -350 c0 -52 -27 -76 -85 -76 -29 0 -37 5
-46 27 -16 44 1 69 58 81 75 15 73 16 73 -32z"/>
<path d="M3798 1593 l-58 -4 -2 -249 c-1 -138 -2 -260 -2 -272 -1 -22 3 -23
90 -26 l91 -3 1 281 0 280 -31 -2 c-18 -1 -58 -3 -89 -5z"/>
<path d="M5008 1593 l-57 -4 1 -275 1 -275 89 3 90 3 -2 191 -1 191 32 13 c45
19 89 17 106 -6 12 -15 14 -55 11 -204 l-3 -185 92 -3 92 -3 -2 235 c-2 220
-3 236 -23 263 -60 82 -168 84 -271 5 l-33 -24 0 41 c0 46 14 42 -122 34z"/>
<path d="M5506 1592 c-3 -5 40 -130 94 -278 l99 -269 -27 -22 c-35 -30 -99
-60 -145 -68 -21 -4 -40 -11 -43 -16 -12 -20 69 -119 98 -119 34 0 153 61 191
98 21 20 50 59 63 85 26 50 204 561 204 584 0 10 -19 13 -74 13 -81 0 -77 3
-91 -70 -10 -53 -87 -300 -94 -300 -7 0 -89 280 -98 333 l-6 37 -83 0 c-45 0
-85 -4 -88 -8z"/>
<path d="M495 1341 c-95 -23 -182 -90 -216 -165 -38 -83 -20 -153 50 -194 44
-26 52 -27 183 -27 89 0 141 4 148 11 9 9 -7 13 -62 19 -220 20 -279 49 -263
132 8 42 70 107 128 134 35 15 66 19 180 19 138 0 138 0 135 23 -5 38 -60 57
-163 56 -49 -1 -103 -4 -120 -8z"/>
<path d="M1550 1333 c-39 -20 -52 -56 -24 -67 9 -3 44 -1 78 5 156 28 309 -35
351 -145 34 -90 -23 -121 -258 -142 -58 -5 -76 -9 -67 -18 7 -7 60 -11 148
-11 117 0 143 3 176 20 57 29 81 66 80 124 -3 91 -65 170 -173 219 -77 34
-257 43 -311 15z"/>
<path d="M1055 1300 c-71 -10 -149 -53 -218 -119 -145 -137 -134 -256 26 -295
108 -26 430 -23 591 5 90 15 110 35 101 97 -16 110 -101 229 -199 277 -78 38
-192 51 -301 35z m261 -102 c28 -15 66 -44 84 -64 36 -41 86 -140 96 -190 l6
-31 -224 4 c-322 6 -430 23 -461 74 -32 53 75 169 202 221 72 28 228 21 297
-14z"/>
</g>
</svg>
