<svg width="28" height="28" viewBox="0 0 28 28" fill="none" xmlns="http://www.w3.org/2000/svg">
<path d="M14 2.91675C15.3721 2.91633 16.7082 3.35575 17.8122 4.17053C18.9163 4.98531 19.73 6.13252 20.1341 7.44379C20.5382 8.75506 20.5113 10.1613 20.0573 11.4562C19.6034 12.751 18.7464 13.8663 17.612 14.6382C19.5809 15.3604 21.2887 16.6553 22.5154 18.3563C23.7421 20.0573 24.4317 22.0865 24.4953 24.1827C24.5013 24.2991 24.4839 24.4155 24.4443 24.525C24.4047 24.6346 24.3436 24.7351 24.2646 24.8208C24.1856 24.9064 24.0903 24.9754 23.9842 25.0237C23.8782 25.072 23.7636 25.0986 23.6471 25.102C23.5307 25.1055 23.4147 25.0856 23.306 25.0436C23.1974 25.0016 23.0982 24.9383 23.0143 24.8575C22.9304 24.7766 22.8635 24.6798 22.8175 24.5728C22.7715 24.4657 22.7474 24.3506 22.7465 24.2341C22.677 21.9608 21.7251 19.8039 20.0925 18.2204C18.4599 16.6369 16.2749 15.7514 14.0006 15.7514C11.7262 15.7514 9.54123 16.6369 7.90863 18.2204C6.27604 19.8039 5.32414 21.9608 5.25467 24.2341C5.2477 24.4661 5.14884 24.6859 4.97982 24.8451C4.81081 25.0043 4.58548 25.0898 4.35342 25.0828C4.12135 25.0759 3.90156 24.977 3.74239 24.808C3.58322 24.639 3.4977 24.4136 3.50467 24.1816C3.56854 22.0856 4.25821 20.0566 5.48492 18.3558C6.71163 16.6551 8.41925 15.3603 10.388 14.6382C9.25363 13.8663 8.39659 12.751 7.94267 11.4562C7.48874 10.1613 7.46184 8.75506 7.86591 7.44379C8.26998 6.13252 9.08374 4.98531 10.1878 4.17053C11.2918 3.35575 12.6279 2.91633 14 2.91675ZM9.33333 9.33342C9.33333 10.5711 9.825 11.7581 10.7002 12.6332C11.5753 13.5084 12.7623 14.0001 14 14.0001C15.2377 14.0001 16.4247 13.5084 17.2998 12.6332C18.175 11.7581 18.6667 10.5711 18.6667 9.33342C18.6667 8.09574 18.175 6.90875 17.2998 6.03358C16.4247 5.15841 15.2377 4.66675 14 4.66675C12.7623 4.66675 11.5753 5.15841 10.7002 6.03358C9.825 6.90875 9.33333 8.09574 9.33333 9.33342Z" fill="#8B8B8B"/>
</svg>
