<svg width="27" height="26" viewBox="0 0 27 26" fill="none" xmlns="http://www.w3.org/2000/svg">
<path fill-rule="evenodd" clip-rule="evenodd" d="M25.2281 5.9865L14.5749 14.482C14.2722 14.7235 13.8914 14.8557 13.4983 14.8557C13.1052 14.8557 12.7244 14.7235 12.4217 14.482L1.77356 5.9865C1.7164 6.1521 1.68734 6.32549 1.6875 6.5V19.5C1.6875 19.931 1.86529 20.3443 2.18176 20.649C2.49822 20.9538 2.92745 21.125 3.375 21.125H23.625C24.0726 21.125 24.5018 20.9538 24.8182 20.649C25.1347 20.3443 25.3125 19.931 25.3125 19.5V6.5C25.3132 6.32558 25.2847 6.15219 25.2281 5.9865ZM3.375 3.25H23.625C24.5201 3.25 25.3785 3.59241 26.0115 4.2019C26.6444 4.8114 27 5.63805 27 6.5V19.5C27 20.362 26.6444 21.1886 26.0115 21.7981C25.3785 22.4076 24.5201 22.75 23.625 22.75H3.375C2.47989 22.75 1.62145 22.4076 0.988515 21.7981C0.355579 21.1886 0 20.362 0 19.5V6.5C0 5.63805 0.355579 4.8114 0.988515 4.2019C1.62145 3.59241 2.47989 3.25 3.375 3.25ZM3.02062 4.875L12.4301 12.3549C12.7315 12.5946 13.1099 12.7261 13.5008 12.727C13.8916 12.7279 14.2707 12.5981 14.5732 12.3597L24.0772 4.875H3.02062Z" fill="#8B8B8B"/>
</svg>
