<svg width="32" height="26" viewBox="0 0 32 26" fill="none" xmlns="http://www.w3.org/2000/svg">
<g clip-path="url(#clip0_38_108)">
<path d="M22 1.625C22.5304 1.625 23.0391 1.7962 23.4142 2.10095C23.7893 2.4057 24 2.81902 24 3.25V22.75C24 23.181 23.7893 23.5943 23.4142 23.899C23.0391 24.2038 22.5304 24.375 22 24.375H10C9.46957 24.375 8.96086 24.2038 8.58579 23.899C8.21071 23.5943 8 23.181 8 22.75V3.25C8 2.81902 8.21071 2.4057 8.58579 2.10095C8.96086 1.7962 9.46957 1.625 10 1.625H22ZM10 0C8.93913 0 7.92172 0.34241 7.17157 0.951903C6.42143 1.5614 6 2.38805 6 3.25V22.75C6 23.612 6.42143 24.4386 7.17157 25.0481C7.92172 25.6576 8.93913 26 10 26H22C23.0609 26 24.0783 25.6576 24.8284 25.0481C25.5786 24.4386 26 23.612 26 22.75V3.25C26 2.38805 25.5786 1.5614 24.8284 0.951903C24.0783 0.34241 23.0609 0 22 0L10 0Z" fill="#8B8B8B"/>
<path d="M16 22.75C16.5304 22.75 17.0391 22.5788 17.4142 22.274C17.7893 21.9693 18 21.556 18 21.125C18 20.694 17.7893 20.2807 17.4142 19.976C17.0391 19.6712 16.5304 19.5 16 19.5C15.4696 19.5 14.9609 19.6712 14.5858 19.976C14.2107 20.2807 14 20.694 14 21.125C14 21.556 14.2107 21.9693 14.5858 22.274C14.9609 22.5788 15.4696 22.75 16 22.75Z" fill="#8B8B8B"/>
</g>
<defs>
<clipPath id="clip0_38_108">
<rect width="32" height="26" fill="white"/>
</clipPath>
</defs>
</svg>
