<svg width="31" height="31" viewBox="0 0 31 31" fill="none" xmlns="http://www.w3.org/2000/svg">
<path d="M15.5001 16.3267C15.0387 16.3285 14.5908 16.4818 14.225 16.7629C13.8593 17.0441 13.596 17.4376 13.4757 17.8829C13.3554 18.3283 13.3847 18.8008 13.559 19.2279C13.7334 19.655 14.0432 20.013 14.4409 20.2469V23.25H16.5851V20.2469C16.8997 20.0608 17.1608 19.7965 17.343 19.4796C17.5252 19.1627 17.6223 18.8041 17.6249 18.4386C17.6249 18.1601 17.5698 17.8845 17.4629 17.6274C17.3559 17.3703 17.1992 17.1369 17.0017 16.9407C16.8043 16.7444 16.5699 16.5891 16.3122 16.4837C16.0545 16.3784 15.7785 16.325 15.5001 16.3267Z" stroke="#8B8B8B" stroke-width="2" stroke-linecap="round" stroke-linejoin="round"/>
<path d="M23.4373 11.4766H7.55624C6.01536 11.4766 4.76624 12.7257 4.76624 14.2666V25.3039C4.76624 26.8447 6.01536 28.0939 7.55624 28.0939H23.4373C24.9782 28.0939 26.2273 26.8447 26.2273 25.3039V14.2666C26.2273 12.7257 24.9782 11.4766 23.4373 11.4766Z" stroke="#8B8B8B" stroke-width="2" stroke-linecap="round" stroke-linejoin="round"/>
<path d="M8.62183 11.4765V9.79083C8.62183 7.96493 9.34716 6.21381 10.6383 4.9227C11.9294 3.63159 13.6805 2.90625 15.5064 2.90625C17.3323 2.90625 19.0834 3.63159 20.3745 4.9227C21.6657 6.21381 22.391 7.96493 22.391 9.79083V11.4765" stroke="#8B8B8B" stroke-width="2" stroke-linecap="round" stroke-linejoin="round"/>
</svg>
